<svg width="301" height="151" viewBox="0 0 301 151" fill="none" xmlns="http://www.w3.org/2000/svg">
<path d="M111.704 79.3283L110.14 83.7619H110.009C109.748 82.7621 109.27 81.2408 108.488 79.4152L100.099 58.3341H91.8837V91.9335H97.317V71.2001L97.2735 66.5927C97.23 65.6799 97.1431 64.9845 97.0996 64.4629H97.23C97.4908 65.7668 97.7951 66.7231 98.0124 67.3316L108.097 91.8466H111.922L121.919 67.1143C122.136 66.5492 122.354 65.4191 122.571 64.4629H122.701L122.44 70.5047V91.8031H128.221V58.2472H120.311L111.704 79.3283ZM133.698 67.7228H139.349V91.8031H133.698V67.7228ZM136.567 57.5517C135.611 57.5517 134.828 57.8995 134.176 58.508C133.524 59.1165 133.177 59.8989 133.177 60.8552C133.171 61.2881 133.257 61.7173 133.429 62.1145C133.601 62.5116 133.856 62.8676 134.176 63.1589C134.828 63.7674 135.611 64.0717 136.567 64.0717C137.523 64.0717 138.349 63.7239 138.958 63.1589C139.278 62.8676 139.533 62.5116 139.705 62.1145C139.877 61.7173 139.963 61.2881 139.957 60.8552C139.957 59.9424 139.61 59.16 138.958 58.508C138.393 57.8995 137.567 57.5517 136.567 57.5517ZM159.387 67.5055C158.344 67.2882 157.257 67.1578 156.214 67.1578C153.649 67.1578 151.302 67.7228 149.346 68.8529C147.39 69.9831 145.825 71.5479 144.826 73.5038C143.782 75.5033 143.261 77.807 143.261 80.4584C143.261 82.7621 143.782 84.8051 144.782 86.6741C145.782 88.4997 147.173 89.9775 149.042 90.9773C150.824 91.977 152.91 92.4986 155.257 92.4986C157.952 92.4986 160.256 91.9335 162.082 90.8903L162.125 90.8469V85.6309L161.908 85.8048C161.082 86.4133 160.126 86.9349 159.169 87.2392C158.17 87.5869 157.257 87.7608 156.475 87.7608C154.214 87.7608 152.432 87.1088 151.172 85.6744C149.868 84.2835 149.216 82.371 149.216 79.9803C149.216 77.5027 149.868 75.5467 151.215 74.1124C152.563 72.678 154.345 71.9391 156.518 71.9391C158.344 71.9391 160.213 72.5476 161.908 73.7646L162.125 73.9385V68.4183L162.082 68.3748C161.343 68.0706 160.517 67.7228 159.387 67.5055ZM178.034 67.3316C176.643 67.3316 175.339 67.7663 174.209 68.6791C173.253 69.4615 172.601 70.5916 172.035 71.9391H171.992V67.7228H166.341V91.8031H171.992V79.5022C171.992 77.4158 172.427 75.6772 173.383 74.4166C174.339 73.1126 175.556 72.4606 177.034 72.4606C177.556 72.4606 178.077 72.591 178.729 72.678C179.338 72.8518 179.772 73.0257 180.077 73.243L180.294 73.4169V67.7663L180.164 67.7228C179.772 67.462 178.99 67.3316 178.034 67.3316ZM193.421 67.2012C189.465 67.2012 186.292 68.3748 184.076 70.6785C181.815 72.9822 180.729 76.1553 180.729 80.1542C180.729 83.8923 181.859 86.9349 184.032 89.1517C186.205 91.325 189.161 92.4551 192.856 92.4551C196.724 92.4551 199.81 91.2815 202.027 88.9344C204.287 86.5872 205.374 83.4576 205.374 79.5891C205.374 75.7641 204.331 72.7214 202.201 70.5047C200.158 68.2879 197.159 67.2012 193.421 67.2012ZM197.941 85.7179C196.898 87.0653 195.246 87.7173 193.204 87.7173C191.161 87.7173 189.509 87.0653 188.335 85.6309C187.162 84.2835 186.597 82.3275 186.597 79.8499C186.597 77.2854 187.205 75.3294 188.335 73.9385C189.509 72.5476 191.117 71.8521 193.16 71.8521C195.16 71.8521 196.724 72.5041 197.854 73.8516C198.985 75.199 199.593 77.155 199.593 79.7195C199.506 82.3275 199.028 84.3704 197.941 85.7179ZM217.979 77.7201C216.197 76.9811 215.067 76.4161 214.545 75.9379C214.111 75.5033 213.893 74.8948 213.893 74.1124C213.893 73.4604 214.154 72.8084 214.806 72.3737C215.458 71.9391 216.197 71.7217 217.284 71.7217C218.24 71.7217 219.24 71.8956 220.196 72.1564C221.152 72.4172 222.022 72.8084 222.717 73.33L222.934 73.5038V68.201L222.804 68.1575C222.152 67.8967 221.283 67.6359 220.24 67.4186C219.196 67.2447 218.24 67.1578 217.458 67.1578C214.763 67.1578 212.546 67.8098 210.807 69.2441C209.069 70.5916 208.243 72.4172 208.243 74.547C208.243 75.6771 208.417 76.6769 208.808 77.5027C209.199 78.3286 209.764 79.111 210.547 79.763C211.329 80.3715 212.459 81.067 214.024 81.719C215.328 82.284 216.328 82.7187 216.936 83.0664C217.545 83.4141 217.936 83.8053 218.24 84.1096C218.457 84.4573 218.588 84.892 218.588 85.4571C218.588 87.0653 217.371 87.8477 214.893 87.8477C213.937 87.8477 212.937 87.6738 211.764 87.2826C210.59 86.8914 209.503 86.3264 208.591 85.6744L208.373 85.5005V91.0207L208.504 91.0642C209.329 91.4554 210.329 91.7162 211.546 92.0205C212.763 92.2378 213.85 92.4117 214.806 92.4117C217.718 92.4117 220.109 91.7597 221.804 90.3253C223.543 88.9344 224.456 87.1522 224.456 84.8485C224.456 83.2403 224.021 81.8059 223.065 80.7192C221.804 79.676 220.24 78.5894 217.979 77.7201ZM239.365 67.2012C235.409 67.2012 232.236 68.3748 230.019 70.6785C227.803 72.9822 226.673 76.1553 226.673 80.1542C226.673 83.8923 227.803 86.9349 229.976 89.1517C232.149 91.325 235.105 92.4551 238.8 92.4551C242.668 92.4551 245.754 91.2815 247.971 88.9344C250.231 86.5872 251.318 83.4576 251.318 79.5891C251.318 75.7641 250.275 72.7214 248.145 70.5047C246.102 68.2879 243.103 67.2012 239.365 67.2012ZM243.842 85.7179C242.799 87.0653 241.147 87.7173 239.104 87.7173C237.018 87.7173 235.409 87.0653 234.236 85.6309C233.062 84.2835 232.497 82.3275 232.497 79.8499C232.497 77.2854 233.106 75.3294 234.236 73.9385C235.409 72.5476 237.018 71.8521 239.06 71.8521C241.016 71.8521 242.625 72.5041 243.755 73.8516C244.885 75.199 245.493 77.155 245.493 79.7195C245.493 82.3275 244.928 84.3704 243.842 85.7179ZM281.527 72.3737V67.7228H275.833V60.5944L275.659 60.6378L270.269 62.2461L270.139 62.2895V67.7228H261.619V64.6802C261.619 63.2893 261.967 62.2026 262.576 61.5072C263.184 60.8117 264.097 60.464 265.227 60.464C266.01 60.464 266.835 60.6378 267.748 61.029L267.965 61.1594V56.2477L267.835 56.2043C267.053 55.9435 266.009 55.7696 264.662 55.7696C262.967 55.7696 261.489 56.1608 260.142 56.8128C258.794 57.5517 257.794 58.5514 257.055 59.8989C256.316 61.2029 255.925 62.6807 255.925 64.3759V67.7228H251.97V72.3302H255.925V91.8031H261.619V72.3737H270.139V84.7616C270.139 89.8471 272.529 92.4117 277.311 92.4117C278.093 92.4117 278.919 92.2813 279.701 92.1509C280.527 91.977 281.136 91.7597 281.483 91.5858L281.527 91.5423V86.8914L281.31 87.0653C280.962 87.2826 280.658 87.4565 280.136 87.5869C279.701 87.7173 279.31 87.7608 279.006 87.7608C277.876 87.7608 277.093 87.5 276.528 86.848C276.007 86.2394 275.746 85.2397 275.746 83.7619V72.3737H281.527Z" fill="#1AA37A"/>
<path d="M19.0343 47.0329H45.6791V73.6777H19.0343V47.0329Z" fill="#1AA37A"/>
<path d="M48.4609 47.0329H75.1058V73.6777H48.4609V47.0329Z" fill="#1AA37A"/>
<path d="M19.0343 76.4595H45.6791V103.104H19.0343V76.4595Z" fill="#1AA37A"/>
<path d="M48.4609 76.4595H75.1058V103.104H48.4609V76.4595Z" fill="#1AA37A"/>
</svg>
